<svg xmlns="http://www.w3.org/2000/svg" viewBox="0 0 88.98 100.5"><defs><style>.cls-1{fill:#eae5d0;}.cls-2{fill:#f0ba54;}.cls-3{fill:#eea751;}.cls-4{fill:#f066a6;}.cls-5{fill:#f392b5;}.cls-6,.cls-8,.cls-9{fill:#8d233f;}.cls-7{fill:#f2cedb;}.cls-8,.cls-9{stroke:#f29bb2;stroke-miterlimit:10;}.cls-9{font-size:38.59px;stroke-width:0.75px;font-family:Lobster-Regular, Lobster;}</style></defs><g id="Layer_2" data-name="Layer 2"><g id="Layer_1-2" data-name="Layer 1"><path class="cls-1" d="M84.77,32.92h0a41.6,41.6,0,0,0-29.92-28h0a26,26,0,0,0-11.3-1.5A26,26,0,0,0,40,4h0A41.45,41.45,0,0,0,14.53,17.13a9.81,9.81,0,0,0-5.16,6.92h0A41.33,41.33,0,0,0,3.55,45.27c0,.26,0,.52,0,.78a7.43,7.43,0,0,0-.17,3.63A7.57,7.57,0,0,0,4,51.41a41.32,41.32,0,0,0,4.78,14,6.25,6.25,0,0,0,1.14,2.06l.29.31a41.6,41.6,0,0,0,27,18.23c3.14.76,6.45,1.45,9.54.71h0A41.27,41.27,0,0,0,70.5,78.12h0A18.24,18.24,0,0,0,75,75.9a9.88,9.88,0,0,0,3.29-3.39A8.67,8.67,0,0,0,79.22,69h0a41.35,41.35,0,0,0,7.41-23.68c0-.24,0-.47,0-.7h0a11.49,11.49,0,0,0,.81-6.6A11.08,11.08,0,0,0,84.77,32.92Zm-39.68-3a15.38,15.38,0,1,1-8.61,2.63A15.38,15.38,0,0,1,45.09,29.88Z"/><path class="cls-2" d="M41.85.49A41.54,41.54,0,1,0,83.39,42,41.54,41.54,0,0,0,41.85.49Zm0,56.92A15.39,15.39,0,1,1,57.24,42,15.38,15.38,0,0,1,41.85,57.41Z"/><path class="cls-3" d="M41.85,80.6A38.58,38.58,0,1,1,80.43,42,38.61,38.61,0,0,1,41.85,80.6Zm0-56.92A18.35,18.35,0,1,0,60.2,42,18.37,18.37,0,0,0,41.85,23.68Z"/><path class="cls-4" d="M84.2,34.74a11.08,11.08,0,0,0-2.67-5.06A21.29,21.29,0,0,0,78,26.51c-2.85-2.08-6-3.77-8.45-6.3-5.18-5.34-7-13.45-14-17.08a20.82,20.82,0,0,0-3-1.19l-.93-.31A26.08,26.08,0,0,0,40.27.13,26.3,26.3,0,0,0,36.71.8l-.35.1C33.67,1.63,31.23,2,29.21,4,28,5.13,27.13,6.64,25.92,7.83,23,10.7,18.66,11.32,14.74,12.46a16.09,16.09,0,0,0-3.45,1.43,9.83,9.83,0,0,0-5.16,6.92l-.06.34c-.32,2.45,1.17,4.92,1.13,7.44,0,3.27-2.16,6.1-4.05,8.79A18.29,18.29,0,0,0,.32,42.81a7.43,7.43,0,0,0-.17,3.63,8.76,8.76,0,0,0,.61,1.74c.94,2,2.51,3.67,3.28,5.73,1,2.62.62,5.75,1.5,8.31a6.25,6.25,0,0,0,1.14,2.06l.3.32c2.15,2.19,5.68,2.29,8.67,3.2a14.8,14.8,0,0,1,8.21,6.34c1.29,2.09,2.09,4.56,3.94,6.17a13.46,13.46,0,0,0,5.78,2.42l.32.07c3.16.77,6.49,1.48,9.61.73.3-.07.59-.15.89-.25,4-1.36,6.77-5.16,10.75-6.56C58,75.73,61,76,64,75.65a17.77,17.77,0,0,0,3.3-.77,18.6,18.6,0,0,0,4.49-2.22,9.85,9.85,0,0,0,3.28-3.39A8.52,8.52,0,0,0,76,65.72c.18-2.83-.55-5.88-.22-8.74.46-4,3-7.46,5.12-10.88a27.78,27.78,0,0,0,2.5-4.77A11.54,11.54,0,0,0,84.2,34.74ZM41.85,57.42A15.39,15.39,0,1,1,57.24,42,15.4,15.4,0,0,1,41.85,57.42Z"/><path class="cls-5" d="M40.66,80.39a26.49,26.49,0,0,1-5.94-1l-.1,0-.09,0-.19-.05h0a10.85,10.85,0,0,1-4.32-1.67,10.45,10.45,0,0,1-2-3.09c-.38-.74-.77-1.51-1.25-2.28a18.23,18.23,0,0,0-10.14-7.83c-1-.3-1.93-.5-2.86-.71-1.81-.39-3.53-.76-4.35-1.6L9.31,62a2.77,2.77,0,0,1-.49-.92,15.39,15.39,0,0,1-.54-3.23,20.28,20.28,0,0,0-1-5.18,19.7,19.7,0,0,0-2.16-4,17.57,17.57,0,0,1-1.24-2.06,5.31,5.31,0,0,1-.35-1,4.19,4.19,0,0,1,.12-2A15.49,15.49,0,0,1,6,39.36l.31-.44c1.92-2.73,4.31-6.12,4.36-10.29A15.68,15.68,0,0,0,10,24.25a8.13,8.13,0,0,1-.44-2.64.84.84,0,0,1,0-.18A6.4,6.4,0,0,1,13,16.9a12,12,0,0,1,2.69-1.11c.72-.21,1.45-.4,2.22-.6,3.48-.9,7.43-1.93,10.44-4.89A22.3,22.3,0,0,0,30.3,8a14.28,14.28,0,0,1,1.33-1.59c1-1,2.21-1.31,4.29-1.84.44-.11.89-.22,1.35-.35h0l.23-.06a23.49,23.49,0,0,1,3.11-.59,19.3,19.3,0,0,1,2-.11,25.22,25.22,0,0,1,7.86,1.47l.94.31a18.51,18.51,0,0,1,2.49,1c3.41,1.76,5.35,5,7.6,8.72a41,41,0,0,0,5.5,7.69,36.92,36.92,0,0,0,6.29,4.89c.91.61,1.78,1.19,2.6,1.79a18.18,18.18,0,0,1,3,2.66,7.69,7.69,0,0,1,1.88,3.46,8.07,8.07,0,0,1-.63,4.63A23.89,23.89,0,0,1,78,44.25c-.24.4-.5.8-.76,1.2-2,3.18-4.38,6.79-4.87,11.13a26.92,26.92,0,0,0,.07,5.4,25.4,25.4,0,0,1,.13,3.51A5.11,5.11,0,0,1,72,67.64a6.65,6.65,0,0,1-2.18,2.16,15.06,15.06,0,0,1-3.64,1.8,14.19,14.19,0,0,1-2.67.62c-.89.12-1.84.17-2.85.21a23.16,23.16,0,0,0-6.65,1,22.85,22.85,0,0,0-6.28,3.78A17.05,17.05,0,0,1,43.29,80a5.79,5.79,0,0,1-.61.17,8.33,8.33,0,0,1-2,.22Zm1.19-57.21A18.85,18.85,0,1,0,60.7,42,18.88,18.88,0,0,0,41.85,23.18Z"/><path class="cls-6" d="M27.9,15.92h0a1.4,1.4,0,0,0-2-.27l-5.33,4a1.4,1.4,0,0,0-.28,2h0a1.4,1.4,0,0,0,2,.28l5.33-4A1.4,1.4,0,0,0,27.9,15.92Z"/><path class="cls-6" d="M36,9.34h0a1.4,1.4,0,0,0,.2,2l5.15,4.22a1.41,1.41,0,0,0,2-.19h0a1.4,1.4,0,0,0-.2-2L38,9.15A1.41,1.41,0,0,0,36,9.34Z"/><path class="cls-6" d="M54.85,15.19h0a1.4,1.4,0,0,0-2-.28l-5.34,4a1.41,1.41,0,0,0-.28,2h0a1.4,1.4,0,0,0,2,.28l5.34-4A1.4,1.4,0,0,0,54.85,15.19Z"/><path class="cls-7" d="M58.49,13.88h0a1.4,1.4,0,0,0,.06,2l4.86,4.56a1.4,1.4,0,0,0,2-.06h0a1.4,1.4,0,0,0-.07-2l-4.85-4.56A1.4,1.4,0,0,0,58.49,13.88Z"/><path class="cls-6" d="M68.22,22.83h0a1.39,1.39,0,0,0-.73,1.84l2.64,6.11a1.41,1.41,0,0,0,1.84.74h0a1.41,1.41,0,0,0,.73-1.84l-2.64-6.12A1.4,1.4,0,0,0,68.22,22.83Z"/><path class="cls-7" d="M46.29,3.61h0a1.41,1.41,0,0,0-.73,1.84l2.64,6.12A1.41,1.41,0,0,0,50,12.3h0a1.4,1.4,0,0,0,.73-1.84L48.13,4.34A1.39,1.39,0,0,0,46.29,3.61Z"/><path class="cls-7" d="M67.05,37.25h0a1.41,1.41,0,0,0-1.9-.55l-5.84,3.22a1.42,1.42,0,0,0-.55,1.91h0a1.41,1.41,0,0,0,1.91.54l5.83-3.22A1.4,1.4,0,0,0,67.05,37.25Z"/><path class="cls-6" d="M74.28,42.25h0a1.4,1.4,0,0,0-2-.07l-4.87,4.54a1.4,1.4,0,0,0-.07,2h0a1.4,1.4,0,0,0,2,.07l4.88-4.55A1.4,1.4,0,0,0,74.28,42.25Z"/><path class="cls-6" d="M63.94,30.14h0a1.4,1.4,0,0,0-1.14-1.62l-6.56-1.15a1.39,1.39,0,0,0-1.62,1.13h0a1.4,1.4,0,0,0,1.14,1.62l6.56,1.16A1.4,1.4,0,0,0,63.94,30.14Z"/><path class="cls-7" d="M60,49.69h0a1.4,1.4,0,0,0,.22,2l5.21,4.16a1.38,1.38,0,0,0,2-.22h0a1.39,1.39,0,0,0-.22-2L62,49.47A1.39,1.39,0,0,0,60,49.69Z"/><path class="cls-6" d="M58.9,55.91h0A1.41,1.41,0,0,0,57,55.42l-5.73,3.4a1.4,1.4,0,0,0-.49,1.92h0a1.39,1.39,0,0,0,1.92.49l5.73-3.4A1.41,1.41,0,0,0,58.9,55.91Z"/><path class="cls-7" d="M37.07,58.88h0a1.4,1.4,0,0,0,.37,1.94L43,64.57a1.4,1.4,0,0,0,1.95-.37h0a1.41,1.41,0,0,0-.37-1.94L39,58.51A1.4,1.4,0,0,0,37.07,58.88Z"/><path class="cls-6" d="M13.34,61.67h0a1.39,1.39,0,0,0,.37,1.94l5.51,3.75A1.39,1.39,0,0,0,21.16,67h0a1.39,1.39,0,0,0-.37-1.94L15.28,61.3A1.4,1.4,0,0,0,13.34,61.67Z"/><path class="cls-6" d="M32.08,58.62h0A1.39,1.39,0,0,0,30.2,58l-5.92,3.07a1.41,1.41,0,0,0-.6,1.89h0a1.4,1.4,0,0,0,1.89.59l5.91-3.06A1.4,1.4,0,0,0,32.08,58.62Z"/><path class="cls-7" d="M14.71,49h0a1.39,1.39,0,0,0,0,2l4.62,4.8a1.39,1.39,0,0,0,2,0h0a1.4,1.4,0,0,0,0-2L16.69,49A1.4,1.4,0,0,0,14.71,49Z"/><path class="cls-7" d="M74.5,33.79h0a1.4,1.4,0,0,0,0,2l4.63,4.8a1.39,1.39,0,0,0,2,0h0a1.39,1.39,0,0,0,0-2l-4.62-4.8A1.4,1.4,0,0,0,74.5,33.79Z"/><path class="cls-6" d="M24.82,38.68h0a1.4,1.4,0,0,0-1.93-.45l-5.65,3.53a1.4,1.4,0,0,0-.44,1.93h0a1.39,1.39,0,0,0,1.92.45l5.66-3.53A1.41,1.41,0,0,0,24.82,38.68Z"/><path class="cls-7" d="M12.23,33h0a1.39,1.39,0,0,0-1.75.92l-2,6.37A1.39,1.39,0,0,0,9.44,42h0a1.4,1.4,0,0,0,1.75-.93l2-6.36A1.39,1.39,0,0,0,12.23,33Z"/><rect class="cls-7" x="13.88" y="18.74" width="2.8" height="9.46" rx="1.4"/><path class="cls-7" d="M29.5,17.66h0a1.39,1.39,0,0,0-.15,2l4.34,5.05a1.39,1.39,0,0,0,2,.15h0a1.39,1.39,0,0,0,.15-2l-4.34-5.05A1.39,1.39,0,0,0,29.5,17.66Z"/><rect class="cls-6" x="8.69" y="50.38" width="2.8" height="9.46" rx="1.4"/><path class="cls-7" d="M30.61,71.29h0a1.4,1.4,0,0,0,.28,2l5.31,4a1.41,1.41,0,0,0,2-.27h0a1.39,1.39,0,0,0-.27-2l-5.32-4A1.4,1.4,0,0,0,30.61,71.29Z"/><path class="cls-6" d="M50.55,67.73h0a1.41,1.41,0,0,0-1.95-.35L43.14,71.2a1.4,1.4,0,0,0-.35,2h0a1.4,1.4,0,0,0,2,.34l5.46-3.81A1.4,1.4,0,0,0,50.55,67.73Z"/><path class="cls-7" d="M64.69,63.76h0a1.4,1.4,0,0,0-2-.21l-5.18,4.19a1.39,1.39,0,0,0-.21,2h0a1.39,1.39,0,0,0,2,.21l5.18-4.18A1.41,1.41,0,0,0,64.69,63.76Z"/><path class="cls-6" d="M66.51,60.48h0a1.4,1.4,0,0,0-.11,2l4.43,5a1.4,1.4,0,0,0,2,.11h0a1.38,1.38,0,0,0,.11-2l-4.43-5A1.41,1.41,0,0,0,66.51,60.48Z"/><path class="cls-8" d="M65.86,24.15a4.91,4.91,0,0,0-.86.56c4.2.57,9,1.92,9.06,6.92-5,.05-9.45,3.53-8,7.48,1.18,3,4.23,3.16,6.07,2.81,4.39-.84,6.48-4,5.82-9.78-1-5.33-4.93-8.5-9.9-8.41A5.67,5.67,0,0,0,65.86,24.15Z"/><path class="cls-8" d="M64.6,32.08c-1-4.55-7.33-8-14.53-8a19.77,19.77,0,0,0-8.36,1.77A19.69,19.69,0,0,0,33.36,24C25.43,24,19,28.26,19,33.48V54.36c0,3.15,2.24,5.73,5,5.73s5-2.58,5-5.73V37c.15-1.35,2.18-2.3,3.89-2.38s4,.54,4,2.5V54.36c0,3.15,2.23,5.73,5,5.73s5-2.58,5-5.73V37.07c0-1.42,1.92-2.47,3.67-2.56s4.23.6,4.23,2.56V54.36c0,3.15,2.23,5.73,5,5.73s5-2.58,5-5.73C64.6,54.36,64.82,32.72,64.6,32.08Z"/><text class="cls-9" transform="translate(62.91 81.22)">D</text></g></g></svg>