<svg xmlns="http://www.w3.org/2000/svg" viewBox="0 0 360.89 90.37"><defs><style>.cls-1{fill:#eae5d0;}.cls-2{fill:#f0ba54;}.cls-3{fill:#eea751;}.cls-4{fill:#f066a6;}.cls-5{fill:#f392b5;}.cls-6,.cls-8{fill:#8d233f;}.cls-7{fill:#f2cedb;}.cls-8{font-size:23.35px;font-family:Lobster-Regular, Lobster;}</style></defs><g id="Layer_2" data-name="Layer 2"><g id="Layer_1-2" data-name="Layer 1"><path class="cls-1" d="M296.45,41.79h0a22,22,0,0,0-15.87-14.86h0a13.71,13.71,0,0,0-6-.79,12.44,12.44,0,0,0-1.89.35h0a22,22,0,0,0-13.47,6.94,5.24,5.24,0,0,0-2.74,3.67h0a22,22,0,0,0-3.09,11.25c0,.14,0,.28,0,.42a3.9,3.9,0,0,0-.09,1.92,3.74,3.74,0,0,0,.33.92A21.84,21.84,0,0,0,256.16,59a3.16,3.16,0,0,0,.6,1.09l.16.17A22,22,0,0,0,271.23,70a10.8,10.8,0,0,0,5.06.38h0a21.93,21.93,0,0,0,12.6-4.58h0a9.75,9.75,0,0,0,2.38-1.17,5.44,5.44,0,0,0,1.74-1.8,4.61,4.61,0,0,0,.49-1.89h0a21.9,21.9,0,0,0,3.93-12.56V48h0a6.09,6.09,0,0,0,.43-3.49A5.87,5.87,0,0,0,296.45,41.79Zm-21-1.62a8.17,8.17,0,1,1-4.56,1.4A8.16,8.16,0,0,1,275.41,40.17Z"/><path class="cls-2" d="M273.7,24.59a22,22,0,1,0,22,22A22,22,0,0,0,273.7,24.59Zm0,30.18a8.16,8.16,0,1,1,8.15-8.15A8.15,8.15,0,0,1,273.7,54.77Z"/><path class="cls-3" d="M273.7,67.07a20.46,20.46,0,1,1,20.45-20.45A20.48,20.48,0,0,1,273.7,67.07Zm0-30.19a9.74,9.74,0,1,0,9.73,9.74A9.75,9.75,0,0,0,273.7,36.88Z"/><path class="cls-4" d="M296.15,42.75a5.85,5.85,0,0,0-1.41-2.68,12.55,12.55,0,0,0-1.88-1.69,32.73,32.73,0,0,1-4.48-3.33c-2.75-2.84-3.71-7.13-7.42-9.06a11,11,0,0,0-1.61-.63l-.5-.17a13.84,13.84,0,0,0-6-.79,14.09,14.09,0,0,0-1.89.35l-.19.05c-1.42.39-2.72.57-3.79,1.62-.64.63-1.1,1.43-1.74,2.06-1.54,1.52-3.85,1.85-5.93,2.46a8,8,0,0,0-1.83.76,5.2,5.2,0,0,0-2.74,3.67.88.88,0,0,0,0,.17c-.18,1.31.61,2.61.59,4,0,1.74-1.15,3.24-2.14,4.66A9.93,9.93,0,0,0,251.67,47a4,4,0,0,0-.09,1.92,4.89,4.89,0,0,0,.33.93c.5,1,1.33,1.94,1.74,3,.51,1.4.33,3.06.79,4.41a3.36,3.36,0,0,0,.61,1.09l.15.18c1.15,1.16,3,1.21,4.6,1.69a7.86,7.86,0,0,1,4.36,3.36c.68,1.11,1.1,2.42,2.09,3.27a6.92,6.92,0,0,0,3.06,1.29l.17,0a11.21,11.21,0,0,0,5.09.39l.48-.14c2.12-.72,3.59-2.74,5.7-3.48,1.49-.52,3.12-.36,4.68-.57a9.45,9.45,0,0,0,1.75-.4,9.61,9.61,0,0,0,2.38-1.18,5.17,5.17,0,0,0,1.74-1.8,4.45,4.45,0,0,0,.49-1.88c.1-1.5-.29-3.12-.11-4.64.24-2.13,1.57-3.95,2.71-5.77a14.51,14.51,0,0,0,1.33-2.53A6.09,6.09,0,0,0,296.15,42.75Zm-22.45,12a8.16,8.16,0,1,1,8.15-8.15A8.15,8.15,0,0,1,273.7,54.77Z"/><path class="cls-5" d="M273.07,67a13.77,13.77,0,0,1-3.16-.51h-.1l-.1,0h0a5.83,5.83,0,0,1-2.29-.88,5.74,5.74,0,0,1-1.07-1.64c-.2-.4-.41-.8-.66-1.21a9.75,9.75,0,0,0-5.38-4.16c-.52-.15-1-.26-1.52-.37a5,5,0,0,1-2.31-.85l-.07-.08a1.51,1.51,0,0,1-.26-.49A7.82,7.82,0,0,1,255.9,55a11.31,11.31,0,0,0-.53-2.74,10.36,10.36,0,0,0-1.15-2.1,12.77,12.77,0,0,1-.66-1.1,2,2,0,0,1-.18-.52,2.1,2.1,0,0,1,.06-1,8.34,8.34,0,0,1,1.24-2.32l.16-.23c1-1.45,2.29-3.25,2.32-5.46a8.53,8.53,0,0,0-.38-2.32,4.69,4.69,0,0,1-.24-1.4s0-.07,0-.1a3.41,3.41,0,0,1,1.84-2.4,6.39,6.39,0,0,1,1.43-.59l1.17-.32a11.6,11.6,0,0,0,5.54-2.59,10.78,10.78,0,0,0,1-1.22c.25-.31.48-.61.71-.84a4.62,4.62,0,0,1,2.27-1l.72-.19h0l.12,0a13.19,13.19,0,0,1,1.65-.31,9.24,9.24,0,0,1,1.05-.06,13.5,13.5,0,0,1,4.17.78l.5.17a8.67,8.67,0,0,1,1.32.51c1.81.94,2.84,2.65,4,4.63a21.82,21.82,0,0,0,2.92,4.07,19,19,0,0,0,3.33,2.6c.49.32.95.63,1.39.95a9.21,9.21,0,0,1,1.57,1.41,4,4,0,0,1,1,1.83,4.22,4.22,0,0,1-.34,2.46,12.84,12.84,0,0,1-1.17,2.23l-.4.63a14.07,14.07,0,0,0-2.59,5.9,15.19,15.19,0,0,0,0,2.87,12,12,0,0,1,.07,1.86,2.72,2.72,0,0,1-.28,1.14,3.44,3.44,0,0,1-1.15,1.14,7.91,7.91,0,0,1-1.93,1,8.61,8.61,0,0,1-1.42.33c-.47.06-1,.08-1.51.11a9.64,9.64,0,0,0-6.86,2.54,8.88,8.88,0,0,1-2.35,1.47l-.32.09a4.43,4.43,0,0,1-1.07.12Zm.63-30.34a10,10,0,1,0,10,10A10,10,0,0,0,273.7,36.62Z"/><path class="cls-6" d="M266.3,32.77h0a.75.75,0,0,0-1-.14l-2.83,2.12a.75.75,0,0,0-.14,1h0a.75.75,0,0,0,1,.15l2.82-2.13A.75.75,0,0,0,266.3,32.77Z"/><path class="cls-6" d="M270.61,29.28h0a.75.75,0,0,0,.1,1l2.74,2.24a.74.74,0,0,0,1-.11h0a.74.74,0,0,0-.1-1l-2.74-2.24A.74.74,0,0,0,270.61,29.28Z"/><path class="cls-6" d="M280.59,32.38h0a.75.75,0,0,0-1-.14l-2.83,2.11a.75.75,0,0,0-.15,1h0a.74.74,0,0,0,1,.15l2.83-2.12A.75.75,0,0,0,280.59,32.38Z"/><path class="cls-7" d="M282.52,31.69h0a.74.74,0,0,0,0,1.05l2.58,2.42a.74.74,0,0,0,1.05,0h0a.74.74,0,0,0,0-1l-2.57-2.41A.74.74,0,0,0,282.52,31.69Z"/><path class="cls-6" d="M287.68,36.43h0a.75.75,0,0,0-.39,1l1.4,3.24a.75.75,0,0,0,1,.39h0a.73.73,0,0,0,.38-1l-1.4-3.25A.73.73,0,0,0,287.68,36.43Z"/><path class="cls-7" d="M276.05,26.24h0a.76.76,0,0,0-.39,1l1.4,3.24a.75.75,0,0,0,1,.39h0a.74.74,0,0,0,.39-1L277,26.63A.75.75,0,0,0,276.05,26.24Z"/><path class="cls-7" d="M287.06,44.08h0a.74.74,0,0,0-1-.29L283,45.5a.74.74,0,0,0-.29,1h0a.73.73,0,0,0,1,.29l3.1-1.71A.74.74,0,0,0,287.06,44.08Z"/><path class="cls-6" d="M290.89,46.73h0a.74.74,0,0,0-1.05,0l-2.58,2.41a.74.74,0,0,0,0,1h0a.74.74,0,0,0,1,0l2.58-2.41A.74.74,0,0,0,290.89,46.73Z"/><path class="cls-6" d="M285.41,40.31h0a.75.75,0,0,0-.6-.86l-3.48-.61a.74.74,0,0,0-.86.6h0a.74.74,0,0,0,.6.86l3.48.61A.75.75,0,0,0,285.41,40.31Z"/><path class="cls-7" d="M283.34,50.68h0a.73.73,0,0,0,.11,1l2.76,2.21a.76.76,0,0,0,1.05-.12h0a.74.74,0,0,0-.12-1l-2.76-2.21A.73.73,0,0,0,283.34,50.68Z"/><path class="cls-6" d="M282.73,54h0a.73.73,0,0,0-1-.26l-3,1.8a.75.75,0,0,0-.26,1h0a.75.75,0,0,0,1,.26l3-1.81A.73.73,0,0,0,282.73,54Z"/><path class="cls-7" d="M271.16,55.55h0a.74.74,0,0,0,.2,1l2.92,2a.74.74,0,0,0,1-.2h0a.74.74,0,0,0-.2-1l-2.92-2A.74.74,0,0,0,271.16,55.55Z"/><path class="cls-6" d="M258.58,57h0a.74.74,0,0,0,.19,1l2.92,2a.75.75,0,0,0,1-.2h0a.74.74,0,0,0-.2-1l-2.92-2A.74.74,0,0,0,258.58,57Z"/><path class="cls-6" d="M268.52,55.41h0a.74.74,0,0,0-1-.31l-3.14,1.62a.75.75,0,0,0-.32,1h0a.74.74,0,0,0,1,.32l3.14-1.63A.74.74,0,0,0,268.52,55.41Z"/><path class="cls-7" d="M259.31,50.3h0a.73.73,0,0,0,0,1.05l2.45,2.55a.75.75,0,0,0,1.05,0h0a.75.75,0,0,0,0-1.05l-2.46-2.55A.74.74,0,0,0,259.31,50.3Z"/><path class="cls-7" d="M291,42.25h0a.74.74,0,0,0,0,1l2.45,2.54a.73.73,0,0,0,1.05,0h0a.74.74,0,0,0,0-1l-2.45-2.54A.73.73,0,0,0,291,42.25Z"/><path class="cls-6" d="M264.67,44.84h0a.76.76,0,0,0-1-.24l-3,1.87a.75.75,0,0,0-.24,1h0a.74.74,0,0,0,1,.23l3-1.87A.74.74,0,0,0,264.67,44.84Z"/><path class="cls-7" d="M258,41.8h0a.74.74,0,0,0-.93.5l-1,3.37a.75.75,0,0,0,.49.93h0a.75.75,0,0,0,.93-.49l1-3.38A.75.75,0,0,0,258,41.8Z"/><rect class="cls-7" x="258.86" y="34.27" width="1.48" height="5.02" rx="0.74"/><path class="cls-7" d="M267.14,33.69h0a.74.74,0,0,0-.07,1.05l2.3,2.68a.75.75,0,0,0,1.05.08h0a.74.74,0,0,0,.07-1l-2.3-2.68A.75.75,0,0,0,267.14,33.69Z"/><rect class="cls-6" x="256.11" y="51.04" width="1.48" height="5.02" rx="0.74"/><path class="cls-7" d="M267.74,62.13h0a.74.74,0,0,0,.14,1l2.82,2.13a.75.75,0,0,0,1-.15h0a.75.75,0,0,0-.14-1L268.78,62A.74.74,0,0,0,267.74,62.13Z"/><path class="cls-6" d="M278.31,60.24h0a.75.75,0,0,0-1-.18l-2.9,2a.75.75,0,0,0-.19,1h0a.76.76,0,0,0,1,.18l2.9-2A.76.76,0,0,0,278.31,60.24Z"/><path class="cls-7" d="M285.81,58.14h0a.75.75,0,0,0-1.05-.11L282,60.25a.75.75,0,0,0-.11,1h0a.75.75,0,0,0,1.05.11l2.75-2.22A.75.75,0,0,0,285.81,58.14Z"/><path class="cls-6" d="M286.77,56.4h0a.75.75,0,0,0-.06,1.05l2.36,2.63a.72.72,0,0,0,1,.06h0a.72.72,0,0,0,.06-1l-2.35-2.64A.74.74,0,0,0,286.77,56.4Z"/><rect class="cls-6" x="17.9" y="72.67" width="9.97" height="16.06" rx="4.98"/><rect class="cls-6" x="35.9" y="72.83" width="9.97" height="12.73" rx="4.98"/><rect class="cls-6" x="93.31" y="71.87" width="9.97" height="16.06" rx="4.98"/><rect class="cls-6" x="113.91" y="73.38" width="9.97" height="9.97" rx="4.98"/><rect class="cls-6" x="155.31" y="74.31" width="9.97" height="16.06" rx="4.98"/><rect class="cls-6" x="204.05" y="72.11" width="9.97" height="16.06" rx="4.98"/><path class="cls-6" d="M214.88.42A4.94,4.94,0,0,0,214,1c4.2.56,9,1.92,9.06,6.92-5,0-9.45,3.53-8,7.47,1.18,3,4.23,3.17,6.07,2.81,4.39-.84,6.48-4,5.83-9.78C225.94,3.08,222-.08,217,0A5.67,5.67,0,0,0,214.88.42Z"/><rect class="cls-6" x="47.57" y="43.35" width="9.97" height="25.23" rx="4.98"/><rect class="cls-6" x="204.05" y="3.66" width="9.97" height="64.44" rx="4.98"/><rect class="cls-6" x="47.57" y="32.21" width="9.97" height="9.97" rx="4.98"/><path class="cls-6" d="M45.77,40.33c-1-4.59-7.36-8.12-14.59-8.12A19.68,19.68,0,0,0,22.8,34a19.76,19.76,0,0,0-8.39-1.79C6.45,32.21,0,36.48,0,41.75v21C0,66,2.24,68.58,5,68.58s5-2.6,5-5.78V45.25c.14-1.37,2.18-2.33,3.9-2.41s4,.55,4,2.52V62.8c0,3.18,2.24,5.78,5,5.78s5-2.6,5-5.78V45.36c0-1.43,1.93-2.49,3.69-2.57s4.24.6,4.24,2.57V62.8c0,3.18,2.24,5.78,5,5.78s5-2.6,5-5.78C45.77,62.8,46,41,45.77,40.33Z"/><text class="cls-8" transform="translate(297.97 67.07)">Donuts</text><path class="cls-6" d="M160.29,31.87a5,5,0,0,0-4.94,4.58,16.79,16.79,0,0,0-11.7-4.84c-9.71,0-17.59,8.52-17.59,19s7.88,19,17.59,19a16.79,16.79,0,0,0,11.66-4.8v2.62a5,5,0,1,0,10,0V36.85A5,5,0,0,0,160.29,31.87ZM143.65,59.42c-4.49,0-8.13-3.94-8.13-8.79s3.64-8.79,8.13-8.79,8.13,3.94,8.13,8.79S148.14,59.42,143.65,59.42Z"/><path class="cls-6" d="M123.81,47.24c-.62-8.44-7.19-15.09-15.21-15.09a14.32,14.32,0,0,0-5.32,1V9.92a5,5,0,0,0-10,0V64.3a5,5,0,1,0,10,0V48.52h0c0-4.09,1.48-7.54,5.32-7.54s5.31,3.14,5.31,7.33v.21h0V64.3a5,5,0,0,0,5,5h0a5,5,0,0,0,5-5V47.88A4.48,4.48,0,0,0,123.81,47.24Z"/><path class="cls-6" d="M85.4,58.8h-8a8.4,8.4,0,0,1,0-16.8h8.46a4.9,4.9,0,1,0,0-9.79H77.26l-.19,0c-9.55.2-17.23,8.25-17.23,18.17A17.94,17.94,0,0,0,76,68.5a4.78,4.78,0,0,0,.77.08H85.4a5,5,0,0,0,5.11-4.89h0A5,5,0,0,0,85.4,58.8Z"/><path class="cls-6" d="M195.57,57.4H185.05c-4.49,0-8.13-3.93-8.13-8.78s3.64-8.79,8.13-8.79h4.55c1.83,0,5.53-.13,5.51,1.73a1.69,1.69,0,0,1-1.52,1.74h-8.46c-2.82,0-5,1.1-5,3.91s2.27,4.24,5.08,4.24l10.16-.05c4.42.05,6.47-4.75,6.71-9.83,0-10.44-6.68-12-12.05-12h-6a2.48,2.48,0,0,0-.76.13c-8.89,1-15.84,9-15.84,18.9s7.11,18.15,16.15,18.94a5,5,0,0,0,.77.08h11.19c2.81,0,5.12-1.61,5.12-4.43v-.69A5.14,5.14,0,0,0,195.57,57.4Z"/><path class="cls-6" d="M238.56,44l-2.65,0c-4.06,0-7.06-1.35-7-4.61,0-2.37,3.06-3.69,6-3.69h8.73c2.74,0,5-2,5-4.38s-2.25-4.37-5-4.37h-9.14a15.88,15.88,0,0,0-4.87,1c-5.7,1.94-9.71,6.46-9.71,11.75,0,6.7,5.77,9,6.86,9.55,6.9,3.42,14.74-.94,14.63,5.28-.05,3.29-4.46,3.39-7.41,3.4h-8.73c-2.74,0-4.42,1.43-4.23,5.41.14,3,2.9,4.55,5.64,4.55h9.15c12.63-.11,14.45-7,14.45-11.77C250.27,47.85,245.36,44,238.56,44Z"/></g></g></svg>